@startuml

'Diagramme de machine à états (PlantUML)'

'Configuration charte graphique'

'États et transitions'
state EnCréation : entry : constructeur()
state EnDestruction : entry : destructeur()

[*] -right-> EnCréation
EnCréation -right-> EnAttentedePromotion
EnAttentedePromotion --> Promu : modérateu promeut\n/ promouvoir()
EnAttentedePromotion --> EnDestruction : demande destruction
Promu --> EnDestruction : demande destruction
EnDestruction-left-> [*]

@enduml